# xmcd
#
# Track frame offsets:
#	150
#	27422
#	49681
#	72406
#	96133
#	132325
#	157952
#	181779
#	203953
#	230550
#	273219
#
# Disc length: 4287 seconds
#
# Revision: 0
# Processed by: cddbd v1.4PL0 Copyright (c) Steve Scherf et al.
# Submitted via: dBpowerAMP V4.0
#
DISCID=9410bd0b
DTITLE=ben harper - live from mars cd1
DYEAR=1900
DGENRE=Pop
TTITLE0=glory and consequence
TTITLE1=excuse me Mr.
TTITLE2=alone
TTITLE3=sexual healing
TTITLE4=woman in you
TTITLE5=ground on down
TTITLE6=steal my kisses
TTITLE7=burn one down
TTITLE8=welcome to the cruel world
TTITLE9=forgiven
TTITLE10=faded - whole lotta love
EXTD=
EXTT0=
EXTT1=
EXTT2=
EXTT3=
EXTT4=
EXTT5=
EXTT6=
EXTT7=
EXTT8=
EXTT9=
EXTT10=
PLAYORDER=
